<svg width="71" height="70" viewBox="0 0 71 70" fill="none" xmlns="http://www.w3.org/2000/svg">
<rect x="0.499146" y="0.0032959" width="70" height="70" rx="10" fill="#175CFF"/>
<g clip-path="url(#clip0_276_16993)">
<path d="M47.5158 24.0366C47.8269 24.0366 48.0991 24.1533 48.3325 24.3866C48.5658 24.6199 48.6825 24.8922 48.6825 25.2033V41.5366H22.4325V25.2033C22.4325 24.8922 22.5297 24.6199 22.7241 24.3866C22.9186 24.1533 23.1714 24.0366 23.4825 24.0366H47.5158ZM23.4825 21.8199C22.5491 21.8199 21.7714 22.1505 21.1491 22.8116C20.5269 23.4727 20.2158 24.2699 20.2158 25.2033V43.7533H50.7825V25.2033C50.7825 24.2699 50.4714 23.4922 49.8491 22.8699C49.2269 22.2477 48.4491 21.9366 47.5158 21.9366H23.4825V21.8199ZM17.9991 44.8033H52.9991C52.9991 45.7366 52.688 46.5144 52.0658 47.1366C51.4436 47.7588 50.6658 48.0699 49.7325 48.0699H21.2658C20.3325 48.0699 19.5547 47.7588 18.9325 47.1366C18.3103 46.5144 17.9991 45.7366 17.9991 44.8033Z" fill="white"/>
</g>
<defs>
<clipPath id="clip0_276_16993">
<rect width="35" height="35" fill="white" transform="matrix(1 0 0 -1 17.9991 52.5033)"/>
</clipPath>
</defs>
</svg>
