<svg width="37" height="41" viewBox="0 0 37 41" fill="none" xmlns="http://www.w3.org/2000/svg">
<g clip-path="url(#clip0_296_3132)">
<g clip-path="url(#clip1_296_3132)">
<g clip-path="url(#clip2_296_3132)">
<path fill-rule="evenodd" clip-rule="evenodd" d="M10.846 0.446979C10.0292 0.713455 9.32784 1.42744 9.14173 2.18192C9.09392 2.37539 9.05484 3.27237 9.05467 4.17522C9.05451 6.08613 9.11498 6.31156 9.73 6.69099L10.0868 6.91112L15.1252 6.93504C18.5657 6.95137 20.2622 6.93206 20.4744 6.8743C20.8506 6.7719 21.2567 6.46595 21.4291 6.15515C21.4991 6.02914 21.5789 5.62767 21.6065 5.26301L21.6567 4.60014L25.039 4.62219L28.4213 4.64423L28.6414 4.8495C28.8197 5.01576 28.8639 5.13458 28.8739 5.47485C28.8838 5.81293 28.8617 5.88914 28.7604 5.86522C28.6912 5.84888 28.1628 5.81902 27.5862 5.79894C25.3559 5.72108 23.4834 6.37683 21.8669 7.80192C18.5308 10.7431 18.4422 15.4799 21.6673 18.4857C23.4419 20.1396 25.8806 20.9071 28.4053 20.6061L28.9309 20.5434L28.9085 29.6215L28.8862 38.6994L28.6123 38.9275L28.3384 39.1556H15.3776C1.28481 39.1556 2.07562 39.1806 1.85429 38.7279C1.77755 38.571 1.75406 34.6152 1.75406 21.8728C1.75406 3.75851 1.72337 4.90649 2.213 4.69856C2.36632 4.63344 3.1256 4.60515 4.72082 4.60515C7.00387 4.60515 7.00907 4.60476 7.19107 4.42426C7.43429 4.18288 7.42356 3.86309 7.16398 3.62116L6.95455 3.42597L4.49856 3.4488C2.0518 3.47163 2.04099 3.47249 1.6265 3.67142C1.15808 3.89624 0.713312 4.38698 0.583732 4.82206C0.525106 5.01866 0.498016 10.5728 0.500113 21.9194C0.502797 35.756 0.523177 38.7775 0.615687 39.019C0.781247 39.4513 1.12143 39.8275 1.56821 40.0723L1.96374 40.289L15.1696 40.3095C29.8328 40.3323 28.8527 40.3664 29.465 39.8121C29.6318 39.6612 29.8529 39.3901 29.9563 39.2098L30.1443 38.882L30.1672 29.5376L30.1902 20.1931L30.8382 19.8951C32.4451 19.1563 33.8157 17.8599 34.5509 16.3834C34.8944 15.6934 35.1951 14.6604 35.2618 13.9407C35.314 13.3773 35.3027 13.3014 35.137 13.1059C35.003 12.9479 34.8801 12.891 34.6733 12.891C34.2666 12.891 34.0819 13.1479 34.0158 13.8052C33.795 16.0004 32.3016 17.9805 30.1636 18.913C28.8301 19.4946 27.0527 19.6511 25.6617 19.3095C24.0097 18.9036 22.5723 17.947 21.6783 16.6582C20.9127 15.5546 20.5986 14.5519 20.596 13.2037C20.5926 11.458 21.1974 10.1043 22.554 8.82085C23.3867 8.03299 24.103 7.61377 25.2379 7.2499C25.9935 7.00765 26.0974 6.99444 27.2508 6.99335C28.6511 6.9921 29.1617 7.09262 30.2282 7.57953C31.4123 8.12015 31.5393 7.83835 29.0767 10.1335L26.9232 12.1406L25.7221 11.0439C24.7439 10.1508 24.4447 9.9231 24.1096 9.81671C23.1036 9.49724 22.0935 9.84728 21.6118 10.6824C21.3059 11.2126 21.2538 11.6214 21.4228 12.165C21.5575 12.5984 21.65 12.6986 23.6292 14.5536C24.9297 15.7726 25.8221 16.5472 26.0381 16.6446C26.5021 16.854 27.3279 16.8543 27.7904 16.6453C28.0155 16.5436 29.5174 15.1955 32.2102 12.6783C36.6042 8.57063 36.5015 8.68601 36.4995 7.8532C36.497 6.80113 35.613 5.98849 34.4636 5.98146C33.7803 5.97732 33.3697 6.165 32.6467 6.812L32.1265 7.27757L31.7644 7.04603C31.5653 6.9187 31.1342 6.6888 30.8065 6.53528L30.2105 6.25614L30.1667 5.60648C30.0989 4.60092 29.7551 4.03631 28.9701 3.6407C28.6438 3.47632 28.5388 3.47108 25.1448 3.44896L21.6549 3.42621L21.5998 2.86269C21.5694 2.55275 21.4861 2.13315 21.4144 1.93022C21.2474 1.45722 20.6386 0.82594 20.0889 0.555633L19.6605 0.344969L15.4669 0.326209C11.6266 0.30909 11.2374 0.319252 10.846 0.446979ZM19.6754 1.68102C19.8056 1.77099 19.9977 1.9618 20.1024 2.10516C20.2876 2.3589 20.2921 2.41057 20.2701 4.05218L20.2476 5.73859L15.3924 5.75876C11.8764 5.77337 10.5059 5.75461 10.4231 5.69059C10.3338 5.62141 10.3089 5.2663 10.3089 4.0607C10.3089 2.60231 10.3193 2.50085 10.502 2.1788C10.6348 1.94484 10.8107 1.78147 11.0647 1.65624L11.4343 1.47411L15.4365 1.49576C19.3473 1.51702 19.4441 1.52124 19.6754 1.68102ZM34.9769 7.31048C35.1888 7.48917 35.2853 7.81326 35.2071 8.08364C35.1597 8.24803 33.9654 9.4111 31.214 11.9725L27.2885 15.6269H26.9174H26.5462L24.6346 13.8514C22.6679 12.0247 22.469 11.7805 22.6291 11.3882C22.7418 11.112 23.1181 10.8586 23.4157 10.8586C23.6293 10.8586 23.8936 11.0663 25.1563 12.2266C26.4806 13.4433 26.6757 13.5945 26.9227 13.5945C27.1762 13.5945 27.4987 13.3175 30.6432 10.3987C32.5369 8.64106 34.1428 7.18275 34.212 7.15805C34.4029 7.08981 34.812 7.17134 34.9769 7.31048ZM4.1183 9.14197C3.99853 9.24593 3.9347 9.39429 3.9347 9.56884C3.9347 9.74339 3.99853 9.89176 4.1183 9.99572C4.29384 10.1482 4.40287 10.1551 6.63819 10.1551H8.97458L9.1804 9.9632C9.29362 9.85768 9.3863 9.68023 9.3863 9.56884C9.3863 9.45745 9.29362 9.28001 9.1804 9.17448L8.97458 8.98258H6.63819C4.40287 8.98258 4.29384 8.98946 4.1183 9.14197ZM5.13607 14.6403C4.36857 14.8744 3.89251 15.2731 3.55175 15.9675C3.35356 16.3714 3.3315 16.4967 3.36472 17.0316C3.41168 17.7875 3.71412 18.3413 4.31212 18.7663C5.607 19.6866 7.37449 19.2879 8.17931 17.8938C8.30067 17.6836 8.33724 17.457 8.33699 16.9167C8.33666 16.1444 8.21093 15.82 7.70259 15.2804C7.14796 14.6916 5.94877 14.3925 5.13607 14.6403ZM9.5111 15.2371C9.30176 15.4527 9.31643 15.831 9.5423 16.0416C9.72564 16.2125 9.74082 16.2132 13.5611 16.2364C15.6703 16.2491 17.5187 16.2387 17.6689 16.2132C17.9919 16.1583 18.2766 15.9001 18.2766 15.6617C18.2766 15.5682 18.1983 15.3989 18.1027 15.2857L17.9289 15.0797H13.7964C9.76162 15.0797 9.6603 15.0835 9.5111 15.2371ZM6.48404 15.8822C7.02651 16.1721 7.29037 16.8948 7.02769 17.3713C6.58451 18.1752 5.59987 18.3318 4.94534 17.7023C4.71034 17.4763 4.65532 17.3567 4.62378 17.002C4.593 16.656 4.62127 16.5207 4.77165 16.294C5.13892 15.7401 5.88319 15.5612 6.48404 15.8822ZM9.76078 17.8118C9.3535 17.9657 9.22334 18.4562 9.5111 18.7526C9.6603 18.9062 9.76162 18.91 13.7964 18.91H17.9289L18.1027 18.704C18.385 18.3696 18.3015 18.0357 17.8837 17.8283C17.6679 17.7212 10.0418 17.7057 9.76078 17.8118ZM5.31857 21.7922C4.54352 21.981 3.95081 22.4218 3.60517 23.0665C2.96004 24.2698 3.5213 25.7183 4.853 26.287C5.13019 26.4054 5.40697 26.4504 5.86373 26.4516C6.88762 26.4542 7.64674 26.0189 8.14811 25.1417C8.30328 24.8701 8.33682 24.687 8.33733 24.1082C8.33783 23.4739 8.31342 23.3634 8.08915 22.986C7.8123 22.5202 7.43387 22.1953 6.8914 21.9577C6.4884 21.7811 5.70312 21.6985 5.31857 21.7922ZM9.5111 22.3504C9.28012 22.5882 9.31425 22.9642 9.58667 23.1825L9.81504 23.3656H15.1314H20.4478L20.6754 23.1832C20.9636 22.9521 20.9778 22.5367 20.7046 22.3305C20.5351 22.2025 20.1482 22.193 15.0932 22.193C9.75885 22.193 9.66123 22.1958 9.5111 22.3504ZM6.5274 23.113C7.34908 23.68 7.30932 24.7183 6.44973 25.1419C6.01453 25.3564 5.76392 25.3628 5.3106 25.1709C4.81459 24.9611 4.57531 24.5676 4.62227 24.0394C4.66597 23.5484 4.86047 23.2722 5.31857 23.0505C5.71477 22.8589 6.1951 22.8836 6.5274 23.113ZM9.83534 24.9048C9.37623 24.9886 9.20229 25.5737 9.5423 25.8909C9.72245 26.0589 9.77898 26.0628 12.303 26.0866C13.7202 26.0999 15.0026 26.0895 15.1527 26.0635C15.8703 25.9389 15.9759 25.1687 15.3078 24.932C15.0884 24.8543 10.2447 24.8302 9.83534 24.9048ZM5.43766 28.9215C4.67436 29.0317 3.94971 29.5274 3.58655 30.1879C3.33603 30.6433 3.28051 31.501 3.46763 32.0259C3.64711 32.5296 4.17164 33.0854 4.72116 33.3542C5.08943 33.5343 5.25265 33.5644 5.86373 33.5645C6.4416 33.5647 6.64373 33.5314 6.93073 33.3893C7.50147 33.1065 7.88635 32.7406 8.14132 32.2384C9.0093 30.5284 7.4613 28.6292 5.43766 28.9215ZM9.61233 29.3932C9.23877 29.5957 9.28616 30.2193 9.68798 30.3899C9.83509 30.4525 11.0822 30.4789 13.8812 30.4789H17.8649L18.0707 30.287C18.1839 30.1815 18.2766 30.004 18.2766 29.8926C18.2766 29.7812 18.1839 29.6038 18.0707 29.4983L17.8649 29.3064L13.8143 29.3087C11.1411 29.3103 9.71222 29.339 9.61233 29.3932ZM6.28308 30.1299C6.76358 30.2543 7.12179 30.7473 7.12179 31.2842C7.12179 32.1357 6.11534 32.6882 5.27831 32.2961C4.44547 31.9062 4.36588 30.8336 5.12978 30.2946C5.50686 30.0285 5.75461 29.9931 6.28308 30.1299ZM9.54934 32.1864C9.2729 32.395 9.29052 32.7943 9.58667 33.0317L9.81504 33.2148H15.1314H20.4478L20.6754 33.0324C20.9636 32.8013 20.9778 32.3859 20.7046 32.1797C20.5351 32.0517 20.1499 32.0423 15.1314 32.0423C10.0172 32.0423 9.73059 32.0497 9.54934 32.1864Z" fill="#175CFF"/>
</g>
</g>
</g>
<defs>
<clipPath id="clip0_296_3132">
<rect width="36" height="40" fill="white" transform="translate(0.5 0.319824)"/>
</clipPath>
<clipPath id="clip1_296_3132">
<rect width="36" height="40" fill="white" transform="translate(0.5 0.319824)"/>
</clipPath>
<clipPath id="clip2_296_3132">
<rect width="36" height="40" fill="white" transform="translate(0.5 0.319824)"/>
</clipPath>
</defs>
</svg>
