<svg width="41" height="41" viewBox="0 0 41 41" fill="none" xmlns="http://www.w3.org/2000/svg">
<g clip-path="url(#clip0_296_3084)">
<g clip-path="url(#clip1_296_3084)">
<g clip-path="url(#clip2_296_3084)">
<path fill-rule="evenodd" clip-rule="evenodd" d="M35.8468 0.367725C34.5626 0.790777 33.8274 2.05359 34.1557 3.27244C34.2195 3.50912 34.2477 3.72428 34.2185 3.75057C34.0531 3.89954 27.4228 9.19963 27.3399 9.24923C27.2836 9.2828 27.0834 9.23312 26.8817 9.13547C26.3879 8.89629 25.5891 8.84551 25.064 9.01999C24.5228 9.19986 23.879 9.79426 23.6427 10.3322C23.445 10.7822 23.399 11.6581 23.5529 12.0435C23.6451 12.2747 24.1229 11.8604 19.2434 15.7813L16.6777 17.8428L16.1933 17.6245C15.6067 17.3601 14.9439 17.3317 14.3809 17.5468L14.0093 17.6887L13.2835 16.9551C12.8843 16.5516 11.2195 14.8378 9.58391 13.1467L6.61008 10.0721L6.77556 9.70413C7.02723 9.14447 7.00877 8.36432 6.73036 7.79511C6.30406 6.92335 5.53898 6.44819 4.5647 6.45014C3.60911 6.4521 2.88125 6.89987 2.45871 7.74582C2.14182 8.3802 2.11969 9.19877 2.40287 9.80717C2.631 10.2974 3.2708 10.8841 3.75794 11.0503C4.22302 11.2088 4.90865 11.2095 5.39641 11.0519L5.77688 10.929L7.06727 12.2441C7.77698 12.9674 8.93786 14.1582 9.64702 14.8903C10.3561 15.6224 11.4395 16.7336 12.0545 17.3595L13.1726 18.4976L13.002 18.8834C12.6363 19.7105 12.8547 20.7936 13.5218 21.461C14.6044 22.5441 16.4877 22.3146 17.2336 21.0088C17.6275 20.3191 17.6945 19.6009 17.4295 18.9099C17.392 18.8122 18.1708 18.1465 20.7245 16.0934C22.5637 14.6146 24.1324 13.3584 24.2106 13.3017C24.3325 13.2134 24.4169 13.2301 24.8014 13.419C25.7443 13.8823 26.9278 13.6426 27.6282 12.8464C28.1498 12.2537 28.355 11.2661 28.1103 10.5265C28.0167 10.2438 28.022 10.2226 28.2265 10.0618C28.3442 9.96906 29.9175 8.70663 31.7226 7.25626L35.0045 4.61937L35.4028 4.82608C35.7432 5.00283 35.8983 5.03272 36.4691 5.03178C37.0415 5.03084 37.1946 5.00056 37.5378 4.82029C38.0488 4.55208 38.5392 3.99539 38.7053 3.49504C38.8889 2.94218 38.835 2.10022 38.5844 1.60355C38.3537 1.14654 37.908 0.728575 37.4218 0.51341C37.0331 0.341436 36.1692 0.261551 35.8468 0.367725ZM37.026 1.6325C37.4438 1.84578 37.6449 2.19028 37.6452 2.69361C37.6457 3.43659 37.1039 3.93788 36.3689 3.87451C35.8945 3.83359 35.6236 3.63892 35.3885 3.16994C35.1749 2.74376 35.1994 2.42813 35.4788 2.00978C35.823 1.49424 36.4537 1.34042 37.026 1.6325ZM5.11511 7.75177C5.57527 7.98391 5.85712 8.50899 5.7768 8.98462C5.59224 10.0774 4.12042 10.3746 3.54764 9.43467C3.33883 9.09212 3.33993 8.49937 3.54991 8.15941C3.72267 7.87993 4.25274 7.57588 4.56767 7.5758C4.67685 7.57572 4.92319 7.65498 5.11511 7.75177ZM26.4659 10.2557C26.8253 10.498 27.0227 10.8654 27.0227 11.2922C27.0227 11.7669 26.81 12.1126 26.3822 12.334C25.7083 12.6825 24.9708 12.397 24.6979 11.6821C24.4832 11.1197 24.6914 10.5702 25.25 10.2251C25.5823 10.0197 26.1365 10.0337 26.4659 10.2557ZM34.3 10.1898C33.5092 10.3871 32.7898 11.0513 32.5312 11.823C32.418 12.1607 32.4058 13.4794 32.4058 25.2581C32.4058 38.2869 32.4061 38.3199 32.5681 38.7529C32.7654 39.2806 33.3038 39.8565 33.8526 40.127C34.2404 40.3182 34.2617 40.3198 36.4724 40.3198H38.7013L39.1093 40.1046C39.6274 39.8314 40.0118 39.4468 40.2849 38.9284L40.5 38.5202V25.2583V11.9964L40.281 11.5501C40.017 11.0124 39.4294 10.4602 38.9159 10.2676C38.604 10.1506 38.2395 10.1251 36.6288 10.1076C35.2442 10.0925 34.5983 10.1154 34.3 10.1898ZM38.6386 11.429C38.7761 11.5043 38.9873 11.6952 39.1078 11.8532L39.3269 12.1406L39.3493 25.0175C39.3616 32.0997 39.3511 38.0095 39.3259 38.1502C39.269 38.4681 38.8652 38.9391 38.5291 39.0796C38.3411 39.1581 37.8065 39.1853 36.4481 39.1853C34.6859 39.1853 34.6077 39.1787 34.2754 39.0034C34.0606 38.89 33.865 38.7058 33.7561 38.5144L33.5814 38.2073L33.5801 25.2754C33.5788 11.2932 33.5556 12.059 33.9914 11.6572C34.3863 11.2931 34.6565 11.2532 36.5897 11.2734C38.1314 11.2895 38.4242 11.3117 38.6386 11.429ZM1.92473 15.7156C1.38323 15.9864 0.947475 16.429 0.704256 16.9551C0.537757 17.3154 0.537054 17.3441 0.516016 24.7677C0.495136 32.1527 0.496387 32.2202 0.652875 32.3767C0.86184 32.5858 1.30652 32.5866 1.5147 32.3783C1.66884 32.2241 1.67111 32.1175 1.67111 24.986C1.67111 16.8589 1.63897 17.3155 2.24193 16.8785L2.55483 16.6517H4.56486C6.52061 16.6517 6.58193 16.6565 6.83343 16.8278C6.97561 16.9246 7.16557 17.1032 7.25559 17.2247L7.41919 17.4456L7.4396 27.8181L7.46001 38.1906L7.26474 38.5239C7.13429 38.7467 6.95715 38.9117 6.73083 39.0213C6.41699 39.1733 6.26003 39.1853 4.58417 39.1853C2.6665 39.1853 2.48405 39.1575 2.11117 38.8086C1.71373 38.4369 1.67111 38.2272 1.67111 36.6449C1.67111 35.2993 1.65985 35.1837 1.5147 35.0385C1.30393 34.8276 0.861762 34.8311 0.647792 35.0451C0.490991 35.202 0.485829 35.2713 0.51195 36.8643C0.538696 38.4925 0.542762 38.5271 0.753213 38.9284C1.02474 39.4462 1.40912 39.831 1.92786 40.1046L2.33585 40.3198H4.5647C6.70815 40.3198 6.80794 40.3131 7.16909 40.1448C7.69729 39.8986 8.27022 39.2844 8.47011 38.75C8.63333 38.3135 8.63356 38.2981 8.61292 27.7757L8.59227 17.2385L8.38151 16.8389C8.11279 16.3292 7.5146 15.7908 7.02152 15.6146C6.69087 15.4965 6.34105 15.4774 4.51856 15.4777L2.3999 15.4781L1.92473 15.7156ZM23.3367 17.9194C22.7502 18.1447 22.1601 18.7437 21.9371 19.3402L21.7673 19.7938L21.7881 29.1571L21.809 38.5202L22.0004 38.9094C22.2443 39.4053 22.7176 39.8788 23.2166 40.1261C23.6051 40.3185 23.6222 40.3198 25.8365 40.3198H28.0654L28.5737 40.0398C28.9051 39.8572 29.181 39.6295 29.3663 39.3853C29.9266 38.6473 29.9032 38.9883 29.9032 31.5477C29.9032 24.9714 29.9008 24.8647 29.7468 24.7106C29.529 24.4927 29.1167 24.5047 28.9001 24.7352L28.7301 24.9163V31.5057C28.7301 38.6693 28.7475 38.3807 28.2901 38.8086C27.9172 39.1575 27.7347 39.1853 25.817 39.1853C24.1412 39.1853 23.9842 39.1733 23.6704 39.0213C23.4446 38.9119 23.2669 38.7467 23.1373 38.5254L22.9429 38.1935V29.0626C22.9429 20.1209 22.9461 19.9254 23.0975 19.6283C23.1826 19.4616 23.3673 19.2429 23.5081 19.1425C23.7582 18.9641 23.8101 18.9594 25.7583 18.9395C27.7045 18.9197 27.7601 18.9235 28.0654 19.0963C28.5826 19.3892 28.7301 19.7848 28.7301 20.8797C28.7301 21.7284 28.7421 21.7996 28.9111 21.9585C29.1451 22.1785 29.5376 22.1814 29.754 21.965C29.9073 21.8115 29.9159 21.7323 29.8908 20.6935C29.866 19.6665 29.8481 19.5532 29.6446 19.1387C29.3755 18.5902 28.8568 18.1188 28.289 17.9062C27.9001 17.7606 27.6896 17.7474 25.814 17.7512C23.9257 17.7549 23.7304 17.7682 23.3367 17.9194ZM15.8392 18.7447C16.4601 19.1103 16.5896 20.0113 16.0993 20.5543C15.6024 21.1045 14.8394 21.1304 14.3646 20.6133C13.7829 19.9798 13.8872 19.2026 14.6141 18.7534C14.9167 18.5663 15.5288 18.562 15.8392 18.7447ZM13.1991 24.7095C12.3905 24.8787 11.6776 25.4329 11.3574 26.1413L11.173 26.5493L11.1515 32.3757C11.1275 38.8791 11.1104 38.647 11.6689 39.3828C11.8562 39.6295 12.1307 39.8565 12.4634 40.0398L12.9718 40.3198H15.2006C17.4149 40.3198 17.432 40.3185 17.8205 40.1261C18.3195 39.8788 18.7928 39.4053 19.0367 38.9094L19.2282 38.5202V32.4956V26.471L19.0174 26.0714C18.7529 25.5699 18.1288 25.002 17.6441 24.8219C17.335 24.7071 16.9598 24.6806 15.3961 24.6633C14.3638 24.6519 13.3751 24.6727 13.1991 24.7095ZM17.0947 25.8877C17.4675 25.9913 17.8515 26.3153 17.9875 26.6409C18.0743 26.8486 18.0942 27.9473 18.0942 32.52V38.1435L17.9141 38.4843C17.7898 38.7194 17.6263 38.882 17.3864 39.0089C17.0449 39.1895 17.0057 39.1923 15.1167 39.1694C13.2133 39.1464 13.1917 39.1442 12.906 38.9506C12.7473 38.843 12.5477 38.6118 12.4623 38.4368C12.3118 38.1286 12.307 37.9458 12.307 32.5075C12.307 26.4565 12.2976 26.5991 12.7196 26.2101C13.0952 25.8639 13.4053 25.813 15.1615 25.8098C16.0648 25.8082 16.9347 25.8432 17.0947 25.8877Z" fill="#175CFF"/>
</g>
</g>
</g>
<defs>
<clipPath id="clip0_296_3084">
<rect width="40" height="40" fill="white" transform="translate(0.5 0.319824)"/>
</clipPath>
<clipPath id="clip1_296_3084">
<rect width="40" height="40" fill="white" transform="translate(0.5 0.319824)"/>
</clipPath>
<clipPath id="clip2_296_3084">
<rect width="40" height="40" fill="white" transform="translate(0.5 0.319824)"/>
</clipPath>
</defs>
</svg>
