<svg width="37" height="41" viewBox="0 0 37 41" fill="none" xmlns="http://www.w3.org/2000/svg">
<g clip-path="url(#clip0_296_3100)">
<g clip-path="url(#clip1_296_3100)">
<g clip-path="url(#clip2_296_3100)">
<path fill-rule="evenodd" clip-rule="evenodd" d="M9.67471 0.444089C9.3044 0.63274 9.18809 0.80709 8.77754 1.78801L8.39649 2.6986L7.79447 2.96024L7.19245 3.22188L6.34248 2.86412C5.43215 2.48087 4.97071 2.41539 4.59866 2.61685C4.48636 2.67765 4.0163 3.12599 3.5541 3.61325C2.66087 4.55478 2.48414 4.86894 2.58336 5.3394C2.68318 5.81329 3.30796 7.31179 3.46298 7.44918C3.79654 7.74489 4.35667 7.47958 4.35667 7.02585C4.35667 6.91675 4.20218 6.44637 4.01327 5.98053L3.66995 5.13355L4.37104 4.40607C4.75663 4.00587 5.11666 3.6785 5.17118 3.6785C5.22571 3.6785 5.64185 3.83675 6.09595 4.03017C6.55005 4.22359 7.03358 4.382 7.17045 4.38215C7.52277 4.3827 8.93711 3.77814 9.18643 3.52049C9.30183 3.40123 9.55712 2.90014 9.7585 2.39772L10.1221 1.49034H11.1568H12.1916L12.5605 2.40859C12.7723 2.93586 13.0156 3.41069 13.1318 3.52377C13.3894 3.77431 14.8259 4.3838 15.1561 4.3827C15.2938 4.38223 15.7803 4.22359 16.2373 4.03017C16.6942 3.83675 17.1098 3.6785 17.1607 3.6785C17.2947 3.6785 18.5734 5.02696 18.5734 5.16825C18.5734 5.23374 18.4203 5.68106 18.2331 6.16222C18.046 6.64339 17.8928 7.12791 17.8928 7.23888C17.8928 7.5421 18.5036 9.06084 18.7224 9.30161C18.8326 9.4229 19.2912 9.67501 19.8042 9.89633L20.6947 10.2805L20.6739 11.3606L20.653 12.4407L19.7947 12.8203C19.3227 13.0291 18.8559 13.2782 18.7575 13.3738C18.5382 13.5866 17.8922 15.1412 17.8945 15.4503C17.8954 15.5735 18.0607 16.1019 18.2619 16.6246L18.6275 17.575L17.8991 18.325L17.1706 19.0749L16.3029 18.7119C15.7726 18.49 15.3175 18.3488 15.1327 18.3488C14.7606 18.3487 13.399 18.9237 13.1217 19.198C13.0139 19.3047 12.7787 19.7632 12.599 20.2169C12.4192 20.6706 12.2243 21.0913 12.1657 21.1519C12.0218 21.3005 10.2194 21.3115 10.1272 21.1643C10.0936 21.1106 9.9254 20.7179 9.75351 20.2916C9.58162 19.8654 9.35537 19.4058 9.25071 19.2702C9.01167 18.9605 7.64648 18.3497 7.19245 18.3492C7.00681 18.3489 6.55452 18.4892 6.02162 18.7122L5.15326 19.0754L4.42019 18.3127L3.6872 17.5499L4.05872 16.6121C4.26297 16.0963 4.43063 15.5926 4.43123 15.4926C4.43289 15.2012 3.82732 13.6837 3.60999 13.435C3.48642 13.2935 3.08283 13.0627 2.54177 12.8241L1.67212 12.4407L1.65125 11.3585L1.63038 10.2764L2.42841 9.93767C3.23748 9.59436 3.44922 9.41829 3.44922 9.08889C3.44922 8.86351 3.13168 8.52372 2.921 8.52372C2.70798 8.52372 1.15563 9.20244 0.907673 9.40407C0.557094 9.689 0.5 9.96541 0.5 11.3775C0.5 13.1443 0.543028 13.2178 1.93597 13.8273L2.78685 14.1996L3.03791 14.843L3.28905 15.4864L2.96071 16.2963C2.36088 17.7759 2.38092 17.8798 3.49731 19.0739C4.30714 19.9402 4.74158 20.2469 5.15568 20.2449C5.27773 20.2444 5.7859 20.0738 6.285 19.8658L7.19245 19.4878L7.79553 19.7543C8.12721 19.9008 8.40443 20.0274 8.41146 20.0356C8.4185 20.0439 8.58403 20.4451 8.77921 20.9272C9.20624 21.9822 9.42388 22.2345 10.0161 22.3615C10.5611 22.4785 12.3419 22.4251 12.5994 22.2841C12.9982 22.0657 13.2014 21.7708 13.5467 20.9089L13.9 20.0276L14.5125 19.7605L15.1251 19.4936L16.0363 19.8681C16.5375 20.074 17.0422 20.2433 17.1579 20.2443C17.5516 20.2475 17.8541 20.0287 18.738 19.1014C19.9527 17.827 19.9598 17.7901 19.3025 16.1601L19.0258 15.4737L19.2805 14.8373L19.5354 14.201L20.3877 13.828C21.7829 13.2174 21.8251 13.1453 21.8251 11.3723C21.8251 9.54895 21.7919 9.48972 20.4458 8.91173C20.0191 8.72855 19.6306 8.5399 19.5826 8.49254C19.5345 8.44526 19.3894 8.1465 19.26 7.82875L19.0247 7.25107L19.3389 6.46114C19.9604 4.89903 19.9507 4.85011 18.7737 3.61325C18.31 3.12599 17.8388 2.67765 17.7265 2.61685C17.3554 2.41593 16.9008 2.48111 15.9934 2.86513L15.1454 3.22407L14.6242 3.00721C14.3375 2.88795 14.052 2.75189 13.9899 2.70485C13.9276 2.65788 13.7281 2.25784 13.5464 1.81591C13.1291 0.801073 13.043 0.668454 12.6769 0.475427C12.4136 0.336557 12.234 0.318348 11.1467 0.319911C10.1839 0.321318 9.86233 0.348436 9.67471 0.444089ZM26.9989 0.39384C26.7543 0.496137 26.4898 0.867812 26.288 1.39273C26.1234 1.82099 26.0699 1.88577 25.7888 1.99667C25.4901 2.11459 25.4529 2.11233 25.0674 1.95306C24.053 1.5341 23.8969 1.56997 23.0958 2.40648C22.2723 3.26627 22.2215 3.48423 22.625 4.42701C22.8086 4.85605 22.8105 4.8784 22.691 5.20186C22.5781 5.50703 22.5253 5.55212 22.0576 5.74171C21.777 5.85549 21.4483 6.0554 21.3271 6.18606C21.112 6.41785 21.1061 6.44637 21.0809 7.37595C21.0468 8.63727 21.1038 8.75442 21.9471 9.15727C22.4915 9.41727 22.5739 9.48479 22.6793 9.75699C22.7945 10.0545 22.791 10.0826 22.5636 10.6982C22.2456 11.5591 22.2953 11.7222 23.1313 12.5656C23.9293 13.3706 24.096 13.418 24.9033 13.0698C25.4533 12.8325 25.4716 12.83 25.768 12.9526C26.038 13.0643 26.1015 13.1462 26.3564 13.7118C26.7406 14.5646 26.8389 14.6193 27.9882 14.6193C29.126 14.6193 29.2202 14.5667 29.6135 13.7119C29.8711 13.1521 29.9401 13.0636 30.2032 12.9547C30.4933 12.8348 30.5164 12.838 31.0668 13.0721C31.8945 13.4242 32.0523 13.3763 32.8785 12.5224C33.6986 11.675 33.7347 11.5457 33.3977 10.6644C33.1685 10.0651 33.1648 10.0362 33.2796 9.75214C33.3829 9.49667 33.4796 9.41985 34.0255 9.15923C34.8659 8.75801 34.9294 8.62586 34.8948 7.35063C34.8704 6.44872 34.8638 6.41707 34.6494 6.18606C34.5281 6.0554 34.1999 5.85573 33.9201 5.74225C33.462 5.55649 33.399 5.50413 33.2905 5.2185C33.1726 4.90841 33.1754 4.88621 33.4083 4.25227C33.7323 3.37091 33.6831 3.20734 32.8428 2.37365C32.0222 1.55958 31.9171 1.53668 30.9091 1.95306C30.52 2.11373 30.4886 2.11545 30.178 1.99291C29.8849 1.87718 29.8372 1.81989 29.6857 1.40102C29.3461 0.462689 29.1133 0.31616 27.9731 0.323037C27.5239 0.325773 27.0855 0.357657 26.9989 0.39384ZM28.7305 2.05692C29.0335 2.72939 29.1239 2.81965 29.7594 3.08496C30.3703 3.34004 30.622 3.33942 31.2462 3.08113L31.7455 2.87459L32.0924 3.23306L32.4393 3.59152L32.2366 4.12536C31.9844 4.7897 31.9835 5.00734 32.2302 5.63832C32.4869 6.29508 32.5742 6.38847 33.225 6.70161L33.7732 6.96552V7.492V8.01849L33.3109 8.20824C32.6813 8.46667 32.5457 8.59382 32.3023 9.15438C31.9883 9.87757 31.9753 10.1543 32.2256 10.7967L32.4383 11.3426L32.1069 11.6915C31.9247 11.8834 31.7375 12.0404 31.6909 12.0404C31.6444 12.0404 31.3884 11.949 31.1223 11.8371C30.5328 11.5896 30.2813 11.6116 29.5664 11.9731C29.0593 12.2295 29.0401 12.2502 28.7623 12.8414L28.4776 13.4471H27.967H27.4562L27.2726 12.9693C27.0138 12.2957 26.8903 12.165 26.2543 11.8914C25.579 11.6009 25.4021 11.5954 24.8121 11.8465C24.5626 11.9528 24.3229 12.0398 24.2796 12.04C24.2363 12.0402 24.0518 11.8834 23.8696 11.6916L23.5383 11.3428L23.7404 10.8105C23.9975 10.1334 23.9941 9.96955 23.7085 9.26059C23.4438 8.60336 23.3173 8.47574 22.6656 8.20824L22.2032 8.01849V7.49513V6.97177L22.7893 6.67324C23.353 6.38604 23.3849 6.35486 23.627 5.8569C23.9784 5.1341 24.0027 4.83753 23.7615 4.21453C23.6531 3.93444 23.5644 3.67147 23.5644 3.63005C23.5644 3.58863 23.7168 3.40022 23.903 3.21133L24.2417 2.86787L24.7364 3.07777C25.353 3.33949 25.6044 3.34074 26.217 3.08496C26.8527 2.81957 26.9427 2.72923 27.2412 2.05692L27.4929 1.49034H27.984H28.4751L28.7305 2.05692ZM27.1376 4.11184C26.5545 4.27407 26.1594 4.50594 25.6989 4.95592C23.9479 6.66738 24.3974 9.54559 26.5843 10.6249C27.1348 10.8965 27.188 10.9072 27.9921 10.9072C28.8076 10.9072 28.8421 10.9 29.4098 10.61C30.6834 9.95955 31.4349 8.64837 31.3369 7.24794C31.2999 6.71841 31.121 6.49186 30.74 6.49186C30.3725 6.49186 30.219 6.72935 30.219 7.29819C30.219 8.0993 30.0455 8.55936 29.5506 9.07022C29.0642 9.57232 28.6134 9.7741 27.9776 9.7741C26.7933 9.7741 25.7574 8.71683 25.7574 7.50802C25.7574 6.6308 26.2321 5.82845 26.9958 5.41512C27.3223 5.23843 27.4785 5.20545 27.9882 5.20553C28.5223 5.20561 28.6483 5.23523 29.0636 5.45803C29.6175 5.75515 29.6817 5.76171 29.9442 5.54837C30.1921 5.34682 30.2174 4.92716 29.9953 4.69764C29.4393 4.12309 28.0907 3.8466 27.1376 4.11184ZM9.89333 6.33704C8.16078 6.80609 6.67944 8.36305 6.27941 10.1355C6.12537 10.8177 6.12786 12.0125 6.28455 12.6265C6.73495 14.391 7.97929 15.7389 9.68795 16.3129C10.1966 16.4838 10.4314 16.5162 11.1626 16.5162C11.8952 16.5162 12.1276 16.4841 12.6372 16.3122C14.1995 15.7853 15.4101 14.5606 15.9331 12.9782C16.1635 12.2811 16.2211 10.8757 16.0484 10.1628C15.5973 8.2999 14.1696 6.80054 12.4021 6.33337C11.6468 6.13378 10.6386 6.13519 9.89333 6.33704ZM12.0925 7.46786C13.4745 7.83984 14.549 8.9322 14.9093 10.3314C14.9688 10.5621 15.0179 11.0347 15.0183 11.3814C15.0199 12.4639 14.6996 13.2824 13.951 14.1094C13.3596 14.7627 12.5417 15.2024 11.6775 15.3315C9.80932 15.6106 7.99139 14.3832 7.41576 12.4543C7.24872 11.8944 7.26656 10.7815 7.45259 10.1592C8.04795 8.16768 10.154 6.94606 12.0925 7.46786ZM20.6562 21.049C20.4915 21.1453 20.2533 21.3763 20.1268 21.5623L19.8968 21.9006L19.8764 29.4407C19.8627 34.5072 19.882 37.0805 19.9351 37.2844C20.0364 37.6734 20.3246 38.0253 20.7192 38.2422C21.0058 38.3996 21.1588 38.4157 22.6092 38.4411C23.4772 38.4562 24.3043 38.4459 24.4473 38.4182C24.9381 38.323 25.1558 37.8524 24.8822 37.4778C24.7754 37.3313 24.6558 37.319 22.9879 37.2824C21.3371 37.2462 21.1999 37.2323 21.1005 37.0917C21.0098 36.9633 20.9933 35.8171 20.9933 29.6428C20.9933 24.7622 21.0192 22.2957 21.0715 22.1946C21.1478 22.0473 21.2875 22.0434 26.4741 22.0434H31.7985L31.9162 22.2171C32.02 22.3702 32.0338 23.024 32.0324 27.7462L32.0309 33.1015L31.4855 33.3664C31.1071 33.5502 30.7928 33.7835 30.4591 34.1283L29.9782 34.6254H27.8678C25.8582 34.6254 25.7501 34.6329 25.6062 34.7817C25.381 35.0144 25.4045 35.4326 25.6542 35.6356C25.8434 35.7895 25.9463 35.7976 27.704 35.7976C29.3604 35.7976 29.5498 35.8106 29.5087 35.9212C29.4835 35.9892 29.4628 36.3233 29.4628 36.6636V37.2824H27.9181H26.3733L26.2166 37.4883C25.9479 37.8413 26.0527 38.2103 26.468 38.3735C26.5874 38.4203 27.3521 38.4546 28.2793 38.4546H29.884L30.0125 38.6796C30.2209 39.044 31.0127 39.7533 31.4445 39.9623C33.09 40.7585 34.965 40.1914 35.9696 38.5937C36.5971 37.5958 36.6743 36.2365 36.1665 35.1315C35.6972 34.1103 34.6853 33.265 33.7354 33.101C33.569 33.0722 33.3745 33.0322 33.303 33.012C33.182 32.9778 33.1717 32.5973 33.1518 27.4836L33.1304 21.9919L32.9036 21.6134C32.7546 21.3649 32.5623 21.1725 32.3435 21.0531L32.0101 20.8712L26.4828 20.8724L20.9555 20.8738L20.6562 21.049ZM10.8076 23.5605L10.5954 23.7492V27.3486V30.948L10.7676 31.126C10.9385 31.3028 10.9585 31.3044 13.545 31.3431L16.1502 31.3822L15.7375 31.7339C15.5105 31.9273 15.2884 32.1758 15.2441 32.2861C15.1451 32.5328 15.2492 32.8605 15.4643 32.9795C15.8011 33.1658 15.9618 33.0762 17.1053 32.0647C18.13 31.1583 18.2352 31.0415 18.2559 30.7874C18.2764 30.5347 18.2361 30.4671 17.8368 30.0853C17.5938 29.853 17.0805 29.3903 16.696 29.0573C16.1328 28.5692 15.9485 28.4516 15.7468 28.4516C15.4336 28.4516 15.2209 28.6796 15.2209 29.0151C15.2209 29.2218 15.303 29.3405 15.7061 29.7168L16.1913 30.1699L13.9605 30.1509L11.7297 30.1318L11.71 26.9132L11.6902 23.6946L11.4918 23.5333C11.2333 23.323 11.0673 23.3297 10.8076 23.5605ZM22.2512 23.6121C22.0015 23.8151 21.978 24.2333 22.2032 24.466C22.3383 24.6057 22.4553 24.6223 23.2997 24.6223C24.1442 24.6223 24.2611 24.6057 24.3962 24.466C24.6214 24.2333 24.5979 23.8151 24.3482 23.6121C24.1735 23.47 24.0444 23.4501 23.2997 23.4501C22.5551 23.4501 22.4259 23.47 22.2512 23.6121ZM25.6542 23.6121C25.4045 23.8151 25.381 24.2333 25.6062 24.466C25.7512 24.6159 25.8582 24.6223 28.2096 24.6223H30.6618L30.8185 24.4164C31.0264 24.1433 31.0165 23.8763 30.7896 23.642L30.604 23.4501H28.2287C25.9402 23.4501 25.8461 23.456 25.6542 23.6121ZM22.2032 25.8727C21.978 26.1054 22.0015 26.5237 22.2512 26.7266C22.4259 26.8687 22.5551 26.8886 23.2997 26.8886C24.0444 26.8886 24.1735 26.8687 24.3482 26.7266C24.5022 26.6015 24.5475 26.4959 24.5475 26.2622C24.5475 25.7849 24.3889 25.7164 23.2829 25.7164C22.4553 25.7164 22.338 25.7334 22.2032 25.8727ZM25.6062 25.8727C25.3794 26.1071 25.4045 26.5237 25.658 26.7298C25.8563 26.891 25.9161 26.8943 28.2736 26.8722L30.6863 26.8496L30.8307 26.6651C31.0264 26.4152 31.0138 26.0937 30.8003 25.8863C30.628 25.7191 30.5862 25.7164 28.1913 25.7164C25.8582 25.7164 25.7511 25.7229 25.6062 25.8727ZM22.2512 28.0666C22.0015 28.2695 21.978 28.6878 22.2032 28.9205C22.3383 29.0602 22.4553 29.0768 23.2997 29.0768C24.1442 29.0768 24.2611 29.0602 24.3962 28.9205C24.6214 28.6878 24.5979 28.2695 24.3482 28.0666C24.1735 27.9245 24.0444 27.9046 23.2997 27.9046C22.5551 27.9046 22.4259 27.9245 22.2512 28.0666ZM25.658 28.0635C25.4045 28.2695 25.3794 28.6861 25.6062 28.9205C25.7512 29.0704 25.8582 29.0768 28.2019 29.0768H30.6464L30.8108 28.896C31.0137 28.6727 31.0215 28.3717 30.8307 28.1282L30.6863 27.9436L28.2736 27.9211C25.9161 27.8989 25.8563 27.9022 25.658 28.0635ZM22.2032 30.3272C21.978 30.5599 22.0015 30.9782 22.2512 31.1811C22.4259 31.3232 22.5551 31.3431 23.2997 31.3431C24.0444 31.3431 24.1735 31.3232 24.3482 31.1811C24.5979 30.9782 24.6214 30.5599 24.3962 30.3272C24.2611 30.1875 24.1442 30.1709 23.2997 30.1709C22.4553 30.1709 22.3383 30.1875 22.2032 30.3272ZM25.6062 30.3272C25.381 30.5599 25.4045 30.9782 25.6542 31.1811C25.8461 31.3372 25.9402 31.3431 28.2287 31.3431H30.604L30.7896 31.1513C31.0165 30.9169 31.0264 30.6499 30.8185 30.3768L30.6618 30.1709H28.2096C25.8582 30.1709 25.7512 30.1773 25.6062 30.3272ZM22.4301 32.4112C22.0384 32.5714 21.9185 33.0808 22.2032 33.375C22.338 33.5143 22.4553 33.5313 23.2829 33.5313C24.385 33.5313 24.5475 33.462 24.5475 32.9919C24.5475 32.4908 24.3768 32.401 23.3865 32.3815C22.9229 32.3723 22.4925 32.3857 22.4301 32.4112ZM25.833 32.4145C25.5798 32.5107 25.4549 32.7014 25.4549 32.9919C25.4549 33.5289 25.4668 33.5313 28.2187 33.5313H30.6464L30.8108 33.3504C31.0824 33.0517 31.0184 32.661 30.6673 32.4734C30.4928 32.3801 30.0385 32.3602 28.2 32.3652C26.9605 32.3686 25.8954 32.3908 25.833 32.4145ZM34.0601 34.4767C34.939 34.9197 35.4113 35.7898 35.3447 36.8431C35.2868 37.759 34.8088 38.4974 34.0123 38.9017C33.4482 39.1879 32.5686 39.2088 32.0206 38.9489C31.4914 38.6978 31.0267 38.213 30.7875 37.6621C30.6015 37.2339 30.5828 37.1149 30.6129 36.5488C30.6619 35.6266 31.0145 34.9934 31.7152 34.5691C32.4961 34.0961 33.2463 34.0666 34.0601 34.4767ZM22.2175 34.7847C21.9776 35.0157 21.9938 35.4264 22.2512 35.6356C22.4249 35.7768 22.5555 35.7976 23.2686 35.7976C24.177 35.7976 24.4305 35.7201 24.5351 35.4101C24.6193 35.1604 24.4808 34.7538 24.285 34.6762C24.2146 34.6482 23.7578 34.6254 23.27 34.6254C22.4819 34.6254 22.3645 34.6431 22.2175 34.7847ZM33.622 35.5403C33.5596 35.563 33.332 35.7588 33.1161 35.9752C32.7249 36.3678 32.7233 36.3685 32.5259 36.2349C32.2498 36.048 31.8943 36.1014 31.7102 36.3574C31.5156 36.6279 31.5762 36.8782 31.9356 37.2895C32.2656 37.6668 32.5956 37.8578 32.8172 37.7995C33.047 37.739 34.2838 36.4247 34.3414 36.1798C34.4214 35.8387 33.9509 35.4204 33.622 35.5403Z" fill="#175CFF"/>
</g>
</g>
</g>
<defs>
<clipPath id="clip0_296_3100">
<rect width="36" height="40" fill="white" transform="translate(0.5 0.319824)"/>
</clipPath>
<clipPath id="clip1_296_3100">
<rect width="36" height="40" fill="white" transform="translate(0.5 0.319824)"/>
</clipPath>
<clipPath id="clip2_296_3100">
<rect width="36" height="40" fill="white" transform="translate(0.5 0.319824)"/>
</clipPath>
</defs>
</svg>
