<svg width="37" height="41" viewBox="0 0 37 41" fill="none" xmlns="http://www.w3.org/2000/svg">
<g clip-path="url(#clip0_296_3116)">
<g clip-path="url(#clip1_296_3116)">
<g clip-path="url(#clip2_296_3116)">
<path fill-rule="evenodd" clip-rule="evenodd" d="M17.118 0.385221C16.5819 0.595246 16.2948 1.04985 16.2948 1.68859V2.14687L15.7132 2.3626L15.1315 2.57841L14.735 2.22612C13.9491 1.52797 13.4177 1.62677 12.27 2.68447L11.4775 3.41476L10.9906 3.25859C8.14176 2.34517 5.10177 4.44909 5.10177 7.33419C5.10177 7.65974 5.15074 8.10551 5.21066 8.32483L5.31963 8.72354L3.79095 8.75833C2.12581 8.79624 1.90887 8.8429 1.313 9.29109C1.13218 9.42709 0.896058 9.72216 0.764704 9.97611L0.534011 10.4223L0.510719 14.6489C0.487675 18.844 0.488827 18.877 0.660756 19.0846C0.877211 19.3459 1.31621 19.3717 1.56279 19.1375C1.72319 18.9851 1.72739 18.8769 1.72756 14.8971C1.72764 10.3929 1.71768 10.4847 2.24762 10.1152C2.46177 9.9658 2.61296 9.95134 4.20287 9.92812L5.92603 9.90288L6.41161 10.364C8.1718 12.0357 10.9175 12.0584 12.7501 10.4165L13.3135 9.91186L23.9336 9.93258C34.5287 9.95321 34.5544 9.95368 34.7862 10.1152C34.914 10.2042 35.0833 10.3976 35.1624 10.545C35.297 10.7957 35.3064 11.4052 35.3065 19.9387L35.3066 29.0643H18.517H1.72739V25.1561C1.72739 21.3521 1.72303 21.2438 1.56279 21.0916C1.31621 20.8574 0.877211 20.8831 0.660756 21.1445C0.48784 21.3532 0.48751 21.3673 0.510719 26.6355L0.534011 31.9172L0.757049 32.3188C0.879762 32.5397 1.13737 32.8482 1.32954 33.0045C1.97956 33.5329 1.78113 33.5196 8.98495 33.5196H15.4718V34.6466V35.7737L13.5583 35.8009C11.7495 35.8265 11.6235 35.838 11.255 36.0106C10.7586 36.2433 10.2678 36.709 10.0245 37.178C9.87175 37.4725 9.82863 37.7032 9.80608 38.3462L9.77801 39.1473H5.35033C1.14683 39.1473 0.913012 39.1548 0.732441 39.2936C0.468169 39.4968 0.468169 39.9703 0.732441 40.1736C0.91688 40.3154 1.44904 40.3198 18.517 40.3198C35.585 40.3198 36.1171 40.3154 36.3016 40.1736C36.5658 39.9703 36.5658 39.4968 36.3016 39.2936C36.121 39.1548 35.8872 39.1473 31.6856 39.1473H27.2597L27.2276 38.3462C27.2023 37.7137 27.1558 37.4678 27.0074 37.178C26.7675 36.7103 26.2769 36.244 25.779 36.0106C25.4105 35.838 25.2845 35.8265 23.4757 35.8009L21.5622 35.7737V34.6466V33.5196H23.9378C26.2166 33.5196 26.3224 33.5129 26.5303 33.3575C26.8021 33.1546 26.8277 32.7362 26.5826 32.5034C26.4195 32.3485 26.3082 32.3471 14.5048 32.347C3.32775 32.3469 2.57378 32.3384 2.3035 32.2102C1.86879 32.004 1.71982 31.6538 1.7464 30.9011L1.76854 30.2758H18.517H35.2655L35.2876 30.9011C35.3142 31.6538 35.1652 32.004 34.7305 32.2102C34.4731 32.3323 34.1424 32.3469 31.6236 32.347C28.9146 32.3471 28.7983 32.3532 28.6402 32.5034C28.4756 32.6598 28.4183 33.0828 28.5385 33.2538C28.7092 33.4965 28.9872 33.5196 31.7473 33.5196C34.88 33.5196 35.1072 33.49 35.7045 33.0045C35.8966 32.8482 36.1542 32.5397 36.277 32.3188L36.5 31.9172V21.1697V10.4223L36.3253 10.0636C36.1023 9.60578 35.6314 9.15853 35.1493 8.94678C34.7854 8.78686 34.6395 8.77998 31.1298 8.75622L27.4879 8.73152L27.4874 8.28724C27.4869 7.65958 27.3688 7.32911 27.0355 7.02239C26.7757 6.78321 26.6892 6.75265 26.1911 6.72373C25.8858 6.70607 25.5939 6.65932 25.5423 6.61993C25.4908 6.58061 25.3659 6.33854 25.2649 6.08216L25.0813 5.61592L25.3725 5.30983C25.7797 4.88189 25.8609 4.70922 25.8609 4.27237C25.8609 3.7883 25.6578 3.50081 24.6896 2.61436C23.6172 1.63255 23.0676 1.54329 22.299 2.22612L21.9025 2.57841L21.3208 2.3626L20.7392 2.14687V1.66491C20.7392 1.13512 20.5694 0.807538 20.1367 0.502701C19.9274 0.355206 19.7784 0.337463 18.6141 0.321909C17.8702 0.311904 17.2365 0.338714 17.118 0.385221ZM19.5064 1.88291C19.5087 2.38855 19.7324 2.8784 20.0633 3.10218C20.2 3.19465 20.337 3.27031 20.3677 3.27031C20.3984 3.27031 20.6767 3.37583 20.9861 3.5048C21.8623 3.86998 22.3981 3.79784 22.9582 3.23928L23.2432 2.95508L23.9252 3.59946C24.3005 3.95393 24.6074 4.27854 24.6074 4.32083C24.6074 4.36311 24.4531 4.54703 24.2647 4.72939C23.9672 5.01719 23.9173 5.11575 23.8867 5.47491C23.8576 5.81758 23.9028 6.00916 24.1499 6.58898C24.5823 7.60401 24.7943 7.77519 25.7207 7.85734L26.2534 7.90455V8.32319V8.74176H24.087H21.9204L21.8257 8.25816C21.6223 7.21921 20.9538 6.38794 19.9409 5.91435C19.4176 5.6697 19.3334 5.6543 18.5187 5.6543C17.7205 5.6543 17.6106 5.67329 17.1128 5.89731C16.1139 6.3469 15.4122 7.21663 15.2083 8.25816L15.1136 8.74176H14.5021C13.9608 8.74176 13.8967 8.72652 13.9441 8.60919C13.9735 8.53634 14.0396 8.21978 14.091 7.90572C14.278 6.76336 13.8244 5.36415 12.9787 4.47536L12.6008 4.07813L13.1959 3.51668L13.7911 2.95523L14.0759 3.23936C14.6359 3.79784 15.1718 3.86998 16.0479 3.5048C16.3573 3.37583 16.6356 3.27031 16.6663 3.27031C16.697 3.27031 16.834 3.19465 16.9707 3.10218C17.3017 2.8784 17.5253 2.38855 17.5276 1.88291L17.5294 1.47255H18.517H19.5046L19.5064 1.88291ZM10.4103 4.3145C11.0239 4.4702 11.4993 4.72697 11.9286 5.13482C13.5269 6.65268 13.0817 9.17267 11.0467 10.1274C10.4447 10.4098 10.3834 10.4222 9.59119 10.4206C8.83055 10.4191 8.72084 10.399 8.22316 10.1692C7.56302 9.86434 6.91061 9.23598 6.59934 8.60521C6.40248 8.20634 6.37746 8.06283 6.37746 7.33481C6.37746 6.60797 6.40272 6.46298 6.59802 6.06716C6.85802 5.54034 7.44483 4.91854 7.94457 4.64044C8.66241 4.24087 9.62065 4.11424 10.4103 4.3145ZM10.6851 6.10374C10.4656 6.32947 10.0361 6.78431 9.73085 7.11455C9.42551 7.44479 9.13869 7.71422 9.09342 7.71336C9.04816 7.71242 8.78652 7.4598 8.51196 7.15199C8.11378 6.70544 7.96012 6.58734 7.75206 6.56787C7.43495 6.53817 7.07702 6.83636 7.07702 7.13018C7.07702 7.36397 8.64331 9.17267 8.90125 9.23677C8.994 9.25982 9.15474 9.24802 9.25836 9.21058C9.43901 9.14539 11.5715 6.98519 11.8727 6.56224C12.1452 6.17963 11.8652 5.69338 11.3723 5.69338C11.1302 5.69338 11.0203 5.75904 10.6851 6.10374ZM19.1913 6.87959C19.8361 7.06304 20.4848 7.77824 20.618 8.45232L20.6752 8.74176H18.517H16.3588L16.416 8.45232C16.544 7.80465 17.1907 7.06953 17.794 6.88592C18.1669 6.77243 18.8046 6.76954 19.1913 6.87959ZM6.07343 13.0719C5.6662 13.176 5.55814 13.2382 5.11511 13.6229C4.64294 14.033 4.48739 14.4019 4.48739 15.1121C4.48739 15.8496 4.64738 16.2056 5.1872 16.6687C5.89072 17.2723 4.69109 17.2225 18.517 17.2225C32.3429 17.2225 31.1433 17.2723 31.8468 16.6687C32.3866 16.2056 32.5466 15.8496 32.5466 15.1121C32.5466 14.3745 32.3866 14.0186 31.8468 13.5554C31.3358 13.1169 31.0254 13.0205 29.9981 12.9809C29.1619 12.9486 29.0755 12.9589 28.8665 13.1162C28.5853 13.3278 28.5557 13.7422 28.8048 13.9787C28.9451 14.112 29.0791 14.135 29.7127 14.135C30.5924 14.135 30.9551 14.2538 31.1894 14.6189C31.4005 14.9476 31.4005 15.2765 31.1894 15.6053C30.8923 16.068 30.7453 16.0891 27.8198 16.0891H25.1835V15.1121V14.135H25.883C26.4729 14.135 26.6084 14.1105 26.7472 13.9787C26.9923 13.7459 26.9667 13.3276 26.6949 13.1246C26.4782 12.9626 26.4745 12.9626 16.4689 12.9678C8.67656 12.9719 6.37416 12.995 6.07343 13.0719ZM23.9078 15.1121V16.05L15.3072 16.0728C9.6046 16.088 6.60798 16.0687 6.41367 16.0156C5.93673 15.8851 5.71904 15.6025 5.71904 15.1139C5.71904 14.8091 5.76282 14.652 5.88364 14.5233C6.25606 14.127 5.93311 14.1396 15.2249 14.1575L23.9078 14.1741V15.1121ZM5.47329 18.369C5.02128 18.7066 5.01947 18.7251 5.01947 22.9284C5.01947 27.1317 5.02128 27.1503 5.47329 27.4879C5.69698 27.655 5.74348 27.6573 8.84652 27.6573C11.9495 27.6573 11.996 27.655 12.2197 27.4879C12.6627 27.157 12.6736 27.0663 12.6736 23.7101C12.6736 21.2513 12.6503 20.566 12.5597 20.3661C12.4972 20.2277 11.9846 19.6837 11.4208 19.157L10.3956 18.1995H8.04786C5.76406 18.1995 5.69394 18.2041 5.47329 18.369ZM10.6762 20.0934L11.439 20.8149V23.6499V26.4849H8.84652H6.254V22.9284V19.372H8.08366H9.91332L10.6762 20.0934ZM14.9141 20.1971C14.6656 20.3624 14.6602 20.85 14.9044 21.0599C15.0645 21.1976 15.2257 21.2088 17.0419 21.2088C18.9545 21.2088 19.011 21.2043 19.1869 21.0373C19.4086 20.8267 19.4231 20.4484 19.2176 20.2328C19.0752 20.0834 18.9674 20.0754 17.0823 20.0754C15.4186 20.0754 15.0673 20.0951 14.9141 20.1971ZM20.4243 20.2563C20.0957 20.5885 20.2734 21.0965 20.7577 21.2094C20.8606 21.2334 23.3462 21.2431 26.2811 21.2309L31.6173 21.2088L31.8159 20.9895C32.0592 20.7208 32.0661 20.5495 31.8439 20.2814L31.6734 20.0754H26.1383H20.6033L20.4243 20.2563ZM7.16253 20.6374C6.83703 20.9692 7.02896 21.4872 7.52088 21.6046C7.63157 21.6309 8.1472 21.6406 8.66685 21.6261C9.77381 21.5951 9.95759 21.5068 9.95759 21.0058C9.95759 20.5261 9.79167 20.4663 8.46101 20.4663C7.40384 20.4663 7.3194 20.4774 7.16253 20.6374ZM7.19677 22.5341C7.08566 22.6396 6.99472 22.817 6.99472 22.9284C6.99472 23.0398 7.08566 23.2172 7.19677 23.3228C7.39578 23.5118 7.42006 23.5146 8.8317 23.5146C10.1567 23.5146 10.281 23.5024 10.4815 23.3526C10.7814 23.1286 10.7814 22.7282 10.4815 22.5042C10.281 22.3544 10.1567 22.3422 8.8317 22.3422C7.42006 22.3422 7.39578 22.345 7.19677 22.5341ZM14.8957 23.1238C14.6506 23.3566 14.6762 23.7749 14.948 23.9779C15.45 24.353 16.2948 24.0834 16.2948 23.548C16.2948 23.1398 16.0628 22.9675 15.513 22.9675C15.17 22.9675 15.0204 23.0054 14.8957 23.1238ZM17.3648 23.1238C17.1197 23.3566 17.1453 23.7749 17.417 23.9779C17.9191 24.353 18.7639 24.0834 18.7639 23.548C18.7639 23.1398 18.5318 22.9675 17.982 22.9675C17.6391 22.9675 17.4895 23.0054 17.3648 23.1238ZM19.8338 23.1238C19.5887 23.3566 19.6143 23.7749 19.8861 23.9779C20.3881 24.353 21.233 24.0834 21.233 23.548C21.233 23.1398 21.0009 22.9675 20.4511 22.9675C20.1082 22.9675 19.9585 23.0054 19.8338 23.1238ZM22.3029 23.1238C22.0578 23.3566 22.0834 23.7749 22.3552 23.9779C22.8572 24.353 23.702 24.0834 23.702 23.548C23.702 23.1398 23.4699 22.9675 22.9202 22.9675C22.5772 22.9675 22.4276 23.0054 22.3029 23.1238ZM24.772 23.1238C24.5269 23.3566 24.5525 23.7749 24.8242 23.9779C25.0352 24.1355 25.1284 24.14 28.2359 24.14C30.435 24.14 31.4943 24.1124 31.6347 24.0516C32.0523 23.871 32.0894 23.2511 31.6947 23.0504C31.5875 22.996 30.401 22.9675 28.2341 22.9675C25.0463 22.9675 24.931 22.9727 24.772 23.1238ZM7.34985 24.2942C6.96855 24.4456 6.87925 24.9477 7.18517 25.2206C7.36631 25.3822 7.44903 25.3906 8.86915 25.3906C10.2996 25.3906 10.3698 25.3834 10.5305 25.2195C10.7411 25.0048 10.7456 24.6817 10.5411 24.4417C10.388 24.262 10.3471 24.2567 8.9568 24.2401C8.17189 24.2306 7.44878 24.255 7.34985 24.2942ZM14.8957 26.0159C14.6506 26.2486 14.6762 26.667 14.948 26.87C15.164 27.0314 15.1945 27.032 23.2978 27.032C29.167 27.032 31.4875 27.0075 31.6347 26.9437C32.0523 26.763 32.0894 26.1431 31.6947 25.9425C31.5828 25.8856 28.9437 25.8595 23.296 25.8595C15.17 25.8595 15.0581 25.8617 14.8957 26.0159ZM20.3277 34.6529V35.7863H18.517H16.7064V34.6529V33.5196H18.517H20.3277V34.6529ZM25.4038 37.1614C25.878 37.4951 26.0065 37.7793 26.0065 38.4945V39.1473H18.517H11.0275V38.5181C11.0275 37.6997 11.2687 37.2683 11.8506 37.0458C11.9837 36.995 14.3695 36.9726 18.6139 36.9825C25.1261 36.9978 25.1731 36.9989 25.4038 37.1614Z" fill="#175CFF"/>
</g>
</g>
</g>
<defs>
<clipPath id="clip0_296_3116">
<rect width="36" height="40" fill="white" transform="translate(0.5 0.319824)"/>
</clipPath>
<clipPath id="clip1_296_3116">
<rect width="36" height="40" fill="white" transform="translate(0.5 0.319824)"/>
</clipPath>
<clipPath id="clip2_296_3116">
<rect width="36" height="40" fill="white" transform="translate(0.5 0.319824)"/>
</clipPath>
</defs>
</svg>
