<svg width="25" height="24" viewBox="0 0 25 24" fill="none" xmlns="http://www.w3.org/2000/svg">
<g clip-path="url(#clip0_301_41)">
<rect width="24" height="24" transform="translate(0.5)" fill="white"/>
<path d="M20.0304 17.4698C19.7375 17.1769 19.2626 17.1769 18.9697 17.4698C18.6768 17.7626 18.6768 18.2375 18.9697 18.5304L20.0304 17.4698ZM22.9696 22.5304C23.2625 22.8233 23.7374 22.8233 24.0303 22.5304C24.3232 22.2375 24.3232 21.7626 24.0303 21.4697L22.9696 22.5304ZM9.83512 4.80232C10.2442 4.73752 10.5234 4.35334 10.4586 3.94423C10.3938 3.53511 10.0096 3.25599 9.60047 3.32079L9.83512 4.80232ZM4.82076 8.1005C4.75596 8.50961 5.03508 8.89379 5.4442 8.95859C5.85331 9.02339 6.23749 8.74426 6.30229 8.33515L4.82076 8.1005ZM18.9697 18.5304L22.9696 22.5304L24.0303 21.4697L20.0304 17.4698L18.9697 18.5304ZM11.5 18.25C6.94365 18.25 3.25 14.5563 3.25 10H1.75C1.75 15.3848 6.11522 19.75 11.5 19.75V18.25ZM19.75 10C19.75 14.5563 16.0563 18.25 11.5 18.25V19.75C16.8848 19.75 21.25 15.3848 21.25 10H19.75ZM11.5 1.75C16.0563 1.75 19.75 5.44365 19.75 10H21.25C21.25 4.61522 16.8848 0.25 11.5 0.25V1.75ZM11.5 0.25C6.11522 0.25 1.75 4.61522 1.75 10H3.25C3.25 5.44365 6.94365 1.75 11.5 1.75V0.25ZM9.60047 3.32079C7.14008 3.71047 5.21044 5.64012 4.82076 8.1005L6.30229 8.33515C6.59032 6.51661 8.01658 5.09035 9.83512 4.80232L9.60047 3.32079Z" fill="#2D264B"/>
</g>
<defs>
<clipPath id="clip0_301_41">
<rect width="24" height="24" fill="white" transform="translate(0.5)"/>
</clipPath>
</defs>
</svg>
