<svg width="89" height="87" viewBox="0 0 89 87" fill="none" xmlns="http://www.w3.org/2000/svg">
<rect x="0.739136" y="14.1532" width="76" height="73" rx="10" transform="rotate(-9.99999 0.739136 14.1532)" fill="#175CFF" fill-opacity="0.5"/>
<rect x="16.4991" y="15.0033" width="70" height="70" rx="10" fill="#175CFF"/>
<g clip-path="url(#clip0_276_16981)">
<path d="M46.4686 48.1521V51.798H51.6603C51.0099 54.107 48.866 55.6728 46.4686 55.5896C43.9099 55.6033 41.6488 53.9274 40.9176 51.4753C40.1864 49.0232 41.1605 46.3827 43.3089 44.9928C45.4573 43.6029 48.265 43.7968 50.202 45.4688L52.8853 42.7855C49.7356 39.9101 45.06 39.4752 41.434 41.7203C37.8081 43.9654 36.1134 48.3448 37.2834 52.4459C38.4535 56.547 42.2039 59.3728 46.4686 59.3667C54.4749 59.3667 56.2395 51.8855 55.452 48.1667L46.4686 48.1521Z" fill="white"/>
<path d="M66.1999 48.7792H63.1665V45.7459H61.0374V48.7792H58.0186V50.8938H61.0374V53.9271H63.1665V50.8938H66.1999V48.7792Z" fill="white"/>
</g>
<defs>
<clipPath id="clip0_276_16981">
<rect width="35" height="35" fill="white" transform="matrix(1 0 0 -1 34 68)"/>
</clipPath>
</defs>
</svg>
