<svg width="44" height="44" viewBox="0 0 44 44" fill="none" xmlns="http://www.w3.org/2000/svg">
<rect x="0.5" y="0.5" width="43" height="43" rx="21.5" stroke="#3A86FF"/>
<path d="M28.3639 21.1924V20.6267C28.3639 20.5421 28.3639 20.4997 28.3634 20.4639C28.3247 17.7585 26.1409 15.5748 23.4355 15.536C23.3997 15.5355 23.3574 15.5355 23.2728 15.5355H22.7071M31.8996 21.8995V20.9095C31.8996 20.0649 31.8996 19.6426 31.8677 19.2866C31.5226 15.4319 28.4677 12.377 24.613 12.0319C24.257 12 23.8347 12 22.99 12L22.0001 12M18.7778 19.2234C18.3246 20.2632 18.554 21.4744 19.356 22.2765L21.7529 24.6733C22.5549 25.4753 23.7661 25.7047 24.8059 25.2515C25.8457 24.7982 27.057 25.0276 27.859 25.8297L29.3172 27.2879C29.3878 27.3585 29.4232 27.3938 29.4518 27.425C30.1548 28.1901 30.1548 29.3662 29.4518 30.1314C29.4232 30.1625 29.3878 30.1978 29.3172 30.2685L28.4309 31.1548C27.7091 31.8766 26.6685 32.1796 25.6721 31.9582C18.8825 30.4494 13.5799 25.1468 12.0712 18.3572C11.8497 17.3608 12.1527 16.3203 12.8745 15.5985L13.7609 14.7121C13.8315 14.6415 13.8668 14.6062 13.8979 14.5776C14.6631 13.8745 15.8392 13.8745 16.6044 14.5776C16.6355 14.6062 16.6708 14.6415 16.7415 14.7121L18.1996 16.1703C19.0017 16.9724 19.2311 18.1836 18.7778 19.2234Z" stroke="#3A86FF" stroke-width="1.5" stroke-linecap="round"/>
</svg>
