<svg width="45" height="46" viewBox="0 0 45 46" fill="none" xmlns="http://www.w3.org/2000/svg">
<circle cx="22.5" cy="23" r="22" stroke="#3A86FF"/>
<path d="M15.0611 30.5451L15.5019 29.9383L15.0611 30.5451ZM13.9549 29.4389L14.5617 28.9981L13.9549 29.4389ZM30.0451 29.4389L29.4383 28.9981L30.0451 29.4389ZM28.9389 30.5451L28.4981 29.9383L28.9389 30.5451ZM28.9389 14.4549L28.4981 15.0617L28.9389 14.4549ZM30.0451 15.5611L29.4383 16.0019L30.0451 15.5611ZM15.0611 14.4549L15.5019 15.0617L15.0611 14.4549ZM13.9549 15.5611L14.5617 16.0019L13.9549 15.5611ZM22 30.75C20.1084 30.75 18.75 30.749 17.698 30.635C16.6601 30.5225 16.0099 30.3074 15.5019 29.9383L14.6202 31.1518C15.4266 31.7377 16.3709 32 17.5365 32.1263C18.688 32.251 20.1418 32.25 22 32.25V30.75ZM12.25 22.5C12.25 24.3582 12.249 25.812 12.3737 26.9635C12.5 28.1291 12.7623 29.0734 13.3482 29.8798L14.5617 28.9981C14.1926 28.4901 13.9775 27.8399 13.865 26.802C13.751 25.75 13.75 24.3916 13.75 22.5H12.25ZM15.5019 29.9383C15.1411 29.6762 14.8238 29.3589 14.5617 28.9981L13.3482 29.8798C13.7028 30.3679 14.1321 30.7972 14.6202 31.1518L15.5019 29.9383ZM30.25 22.5C30.25 24.3916 30.249 25.75 30.135 26.802C30.0225 27.8399 29.8074 28.4901 29.4383 28.9981L30.6518 29.8798C31.2377 29.0734 31.5 28.1291 31.6263 26.9635C31.751 25.812 31.75 24.3582 31.75 22.5H30.25ZM22 32.25C23.8582 32.25 25.312 32.251 26.4635 32.1263C27.6291 32 28.5734 31.7377 29.3798 31.1518L28.4981 29.9383C27.9901 30.3074 27.3399 30.5225 26.302 30.635C25.25 30.749 23.8916 30.75 22 30.75V32.25ZM29.4383 28.9981C29.1762 29.3589 28.8589 29.6762 28.4981 29.9383L29.3798 31.1518C29.8679 30.7972 30.2972 30.3679 30.6518 29.8798L29.4383 28.9981ZM22 14.25C23.8916 14.25 25.25 14.251 26.302 14.365C27.3399 14.4775 27.9901 14.6926 28.4981 15.0617L29.3798 13.8482C28.5734 13.2623 27.6291 13 26.4635 12.8737C25.312 12.749 23.8582 12.75 22 12.75V14.25ZM31.75 22.5C31.75 20.6418 31.751 19.188 31.6263 18.0365C31.5 16.8709 31.2377 15.9266 30.6518 15.1202L29.4383 16.0019C29.8074 16.5099 30.0225 17.1601 30.135 18.198C30.249 19.25 30.25 20.6084 30.25 22.5H31.75ZM28.4981 15.0617C28.8589 15.3238 29.1762 15.6411 29.4383 16.0019L30.6518 15.1202C30.2972 14.6321 29.8679 14.2028 29.3798 13.8482L28.4981 15.0617ZM22 12.75C20.1418 12.75 18.688 12.749 17.5365 12.8737C16.3709 13 15.4266 13.2623 14.6202 13.8482L15.5019 15.0617C16.0099 14.6926 16.6601 14.4775 17.698 14.365C18.75 14.251 20.1084 14.25 22 14.25V12.75ZM13.75 22.5C13.75 20.6084 13.751 19.25 13.865 18.198C13.9775 17.1601 14.1926 16.5099 14.5617 16.0019L13.3482 15.1202C12.7623 15.9266 12.5 16.8709 12.3737 18.0365C12.249 19.188 12.25 20.6418 12.25 22.5H13.75ZM14.6202 13.8482C14.1321 14.2028 13.7028 14.6321 13.3482 15.1202L14.5617 16.0019C14.8238 15.6411 15.1411 15.3238 15.5019 15.0617L14.6202 13.8482ZM18.25 22.5C18.25 24.5711 19.9289 26.25 22 26.25V24.75C20.7574 24.75 19.75 23.7426 19.75 22.5H18.25ZM22 26.25C24.0711 26.25 25.75 24.5711 25.75 22.5H24.25C24.25 23.7426 23.2426 24.75 22 24.75V26.25ZM25.75 22.5C25.75 20.4289 24.0711 18.75 22 18.75V20.25C23.2426 20.25 24.25 21.2574 24.25 22.5H25.75ZM22 18.75C19.9289 18.75 18.25 20.4289 18.25 22.5H19.75C19.75 21.2574 20.7574 20.25 22 20.25V18.75Z" fill="#3A86FF"/>
<path d="M26 17.5C26 18.0523 26.4477 18.5 27 18.5C27.5523 18.5 28 18.0523 28 17.5C28 16.9477 27.5523 16.5 27 16.5C26.4477 16.5 26 16.9477 26 17.5Z" fill="#3A86FF"/>
</svg>
