<svg width="89" height="87" viewBox="0 0 89 87" fill="none" xmlns="http://www.w3.org/2000/svg">
<rect x="0.739136" y="14.1532" width="76" height="73" rx="10" transform="rotate(-9.99999 0.739136 14.1532)" fill="#175CFF" fill-opacity="0.5"/>
<rect x="16.4991" y="15.0033" width="70" height="70" rx="10" fill="#175CFF"/>
<path fill-rule="evenodd" clip-rule="evenodd" d="M55.875 41.8666L63.1667 52.6291C63.3423 52.9188 63.3798 53.2716 63.2688 53.5916L60.9355 60.6937C60.7905 61.1437 60.3728 61.4496 59.9 61.4521H59.7396C59.6031 63.8611 57.6098 65.7446 55.1969 65.7446C52.7841 65.7446 50.7908 63.8611 50.6542 61.4521H50.3188C49.8499 61.4517 49.4334 61.1525 49.2834 60.7083L46.9063 53.4896C46.8022 53.1702 46.8506 52.8207 47.0375 52.5416L54.0521 41.8812C54.2518 41.5753 54.591 41.3893 54.9563 41.3854C55.3221 41.3887 55.664 41.5678 55.875 41.8666ZM55.6855 52.3521C55.6855 52.046 55.4374 51.7979 55.1313 51.7979H55.1021C54.8075 51.8134 54.5767 52.057 54.5771 52.3521C54.5771 52.6581 54.8252 52.9062 55.1313 52.9062C55.4374 52.9062 55.6855 52.6581 55.6855 52.3521ZM55.1896 63.625C53.9559 63.6207 52.9331 62.6679 52.8417 61.4375H57.5521C57.4603 62.6735 56.429 63.6284 55.1896 63.625ZM51.1209 59.25H59.1125L61.023 53.4166L56.0938 46.125V49.8C57.3043 50.2705 58.0186 51.5257 57.8048 52.8067C57.591 54.0877 56.5078 55.043 55.2101 55.0949C53.9124 55.1468 52.7564 54.2811 52.4409 53.0213C52.1255 51.7615 52.7373 50.4532 53.9063 49.8875V46.125L49.1521 53.3L51.1209 59.25Z" fill="white"/>
<path fill-rule="evenodd" clip-rule="evenodd" d="M45.1005 45.849C45.2553 42.0196 48.4027 38.9852 52.2438 38.9791C52.6834 39.9457 53.6465 40.5669 54.7084 40.5687C56.0569 40.5728 57.2012 39.5805 57.3883 38.2451C57.5754 36.9096 56.7477 35.6412 55.45 35.2745C54.1523 34.9079 52.7832 35.5557 52.2438 36.7916H43.6688C43.1526 35.6351 41.898 34.9971 40.6593 35.261C39.4207 35.5249 38.5352 36.6189 38.5352 37.8854C38.5352 39.1519 39.4207 40.2459 40.6593 40.5098C41.898 40.7737 43.1526 40.1356 43.6688 38.9791H46.25C44.1997 40.6825 42.9784 43.1835 42.8959 45.8479C41.7336 46.3674 41.0928 47.6288 41.3584 48.8738C41.624 50.1189 42.7238 51.0088 43.9969 51.0088C45.27 51.0088 46.3698 50.1189 46.6355 48.8738C46.9009 47.6297 46.2611 46.3693 45.1005 45.849ZM55.2042 37.8854C55.2043 37.6091 54.9846 37.3829 54.7084 37.375C54.4265 37.375 54.198 37.6035 54.198 37.8854C54.2059 38.1616 54.4321 38.3813 54.7084 38.3812C54.9822 38.3812 55.2042 38.1592 55.2042 37.8854ZM41.2917 38.3812C41.1577 38.3852 41.0278 38.3347 40.9316 38.2413C40.8355 38.1478 40.7812 38.0195 40.7813 37.8854C40.7471 37.6852 40.8348 37.4838 41.0047 37.3725C41.1746 37.2612 41.3943 37.2612 41.5641 37.3725C41.734 37.4838 41.8217 37.6852 41.7875 37.8854C41.7875 38.0169 41.7353 38.143 41.6423 38.236C41.5493 38.329 41.4232 38.3812 41.2917 38.3812ZM43.4439 48.5189C43.522 48.7114 43.709 48.8374 43.9167 48.8375C44.193 48.8376 44.4192 48.6178 44.4271 48.3416C44.4331 48.134 44.3125 47.9434 44.1224 47.8598C43.9322 47.7762 43.7103 47.8162 43.5613 47.9609C43.4123 48.1057 43.3658 48.3263 43.4439 48.5189Z" fill="white"/>
</svg>
