<svg width="25" height="24" viewBox="0 0 25 24" fill="none" xmlns="http://www.w3.org/2000/svg">
<path d="M18.0857 13.5787L15.0857 12.0787C14.9676 12.0199 14.8361 11.9933 14.7044 12.0015C14.5727 12.0097 14.4455 12.0525 14.3357 12.1256L12.9585 13.0444C12.3263 12.6968 11.806 12.1766 11.4585 11.5444L12.3772 10.1672C12.4503 10.0573 12.4932 9.93016 12.5014 9.79848C12.5096 9.6668 12.483 9.53528 12.4241 9.41719L10.9241 6.41719C10.8619 6.29163 10.7658 6.186 10.6467 6.11226C10.5276 6.03853 10.3902 5.99964 10.2501 6C9.25549 6 8.30166 6.39509 7.5984 7.09835C6.89514 7.80161 6.50005 8.75544 6.50005 9.75C6.50253 11.9373 7.37252 14.0343 8.91916 15.5809C10.4658 17.1275 12.5628 17.9975 14.7501 18C15.2425 18 15.7301 17.903 16.1851 17.7145C16.6401 17.5261 17.0535 17.2499 17.4017 16.9017C17.7499 16.5534 18.0261 16.14 18.2146 15.6851C18.4031 15.2301 18.5001 14.7425 18.5001 14.25C18.5002 14.1107 18.4614 13.9741 18.3882 13.8555C18.3151 13.7369 18.2103 13.6411 18.0857 13.5787ZM14.7501 16.5C12.9605 16.498 11.2447 15.7862 9.97927 14.5208C8.71383 13.2553 8.00204 11.5396 8.00005 9.75C7.99991 9.2298 8.18002 8.72562 8.50974 8.32326C8.83945 7.9209 9.29841 7.64521 9.80849 7.54313L10.8847 9.69938L9.9688 11.0625C9.90036 11.1652 9.8583 11.2831 9.84636 11.406C9.83443 11.5288 9.85297 11.6526 9.90036 11.7666C10.437 13.0419 11.4516 14.0565 12.7269 14.5931C12.8412 14.6426 12.966 14.6629 13.0901 14.6521C13.2141 14.6413 13.3336 14.5998 13.4376 14.5312L14.8072 13.6181L16.9635 14.6944C16.8606 15.205 16.5837 15.6642 16.1801 15.9935C15.7764 16.3228 15.271 16.5018 14.7501 16.5ZM12.5001 2.25C10.8167 2.24963 9.16201 2.68508 7.69691 3.51396C6.23182 4.34285 5.00628 5.53692 4.13959 6.97997C3.27289 8.42301 2.79457 10.0659 2.75117 11.7486C2.70777 13.4314 3.10077 15.0967 3.89193 16.5825L2.82787 19.7747C2.73973 20.039 2.72693 20.3226 2.79093 20.5938C2.85492 20.8649 2.99316 21.1129 3.19016 21.3099C3.38717 21.5069 3.63514 21.6451 3.9063 21.7091C4.17745 21.7731 4.46107 21.7603 4.72537 21.6722L7.91755 20.6081C9.22515 21.3036 10.674 21.6921 12.1541 21.744C13.6343 21.7959 15.1068 21.51 16.4599 20.9079C17.8131 20.3057 19.0112 19.4033 19.9635 18.269C20.9158 17.1346 21.5971 15.7983 21.9558 14.3613C22.3145 12.9244 22.3411 11.4246 22.0336 9.97578C21.7261 8.52701 21.0926 7.16732 20.1812 5.99992C19.2698 4.83253 18.1044 3.88811 16.7735 3.23836C15.4426 2.58861 13.9811 2.25061 12.5001 2.25ZM12.5001 20.25C11.0497 20.251 9.62483 19.8691 8.36943 19.1428C8.27751 19.0895 8.17532 19.0563 8.06962 19.0455C7.96391 19.0347 7.85712 19.0464 7.7563 19.08L4.25005 20.25L5.41912 16.7438C5.45281 16.643 5.46473 16.5362 5.45406 16.4305C5.44339 16.3248 5.41039 16.2226 5.35724 16.1306C4.44784 14.5584 4.08272 12.7299 4.31852 10.929C4.55432 9.12801 5.37786 7.4552 6.66139 6.17006C7.94491 4.88491 9.61667 4.05925 11.4173 3.82118C13.218 3.5831 15.0469 3.94591 16.6203 4.85333C18.1937 5.76074 19.4237 7.16204 20.1194 8.83983C20.8152 10.5176 20.9378 12.3781 20.4683 14.1327C19.9987 15.8873 18.9633 17.4379 17.5226 18.5439C16.0818 19.65 14.3164 20.2497 12.5001 20.25Z" fill="#175CFF"/>
</svg>
