<svg width="89" height="87" viewBox="0 0 89 87" fill="none" xmlns="http://www.w3.org/2000/svg">
<rect x="0.739136" y="14.1532" width="76" height="73" rx="10" transform="rotate(-9.99999 0.739136 14.1532)" fill="#175CFF" fill-opacity="0.5"/>
<rect x="16.4991" y="15.0033" width="70" height="70" rx="10" fill="#175CFF"/>
<g clip-path="url(#clip0_276_16953)">
<path d="M63.5158 39.0366C63.8269 39.0366 64.0991 39.1533 64.3325 39.3866C64.5658 39.6199 64.6825 39.8922 64.6825 40.2033V56.5366H38.4325V40.2033C38.4325 39.8922 38.5297 39.6199 38.7241 39.3866C38.9186 39.1533 39.1714 39.0366 39.4825 39.0366H63.5158ZM39.4825 36.8199C38.5491 36.8199 37.7714 37.1505 37.1491 37.8116C36.5269 38.4727 36.2158 39.2699 36.2158 40.2033V58.7533H66.7825V40.2033C66.7825 39.2699 66.4714 38.4922 65.8491 37.8699C65.2269 37.2477 64.4491 36.9366 63.5158 36.9366H39.4825V36.8199ZM33.9991 59.8033H68.9991C68.9991 60.7366 68.688 61.5144 68.0658 62.1366C67.4436 62.7588 66.6658 63.0699 65.7325 63.0699H37.2658C36.3325 63.0699 35.5547 62.7588 34.9325 62.1366C34.3103 61.5144 33.9991 60.7366 33.9991 59.8033Z" fill="white"/>
</g>
<defs>
<clipPath id="clip0_276_16953">
<rect width="35" height="35" fill="white" transform="matrix(1 0 0 -1 33.9991 67.5033)"/>
</clipPath>
</defs>
</svg>
